<svg width="400" height="412.632" xmlns="http://www.w3.org/2000/svg"><path d="M156.421.263C67.428 5.996.167 69.458.287 147.579c.068 44.083 16.564 82.952 46.901 110.516l4.391 3.989.21 36.515.211 36.516 4.211-2.428c2.315-1.335 18.61-10.768 36.21-20.962l32-18.535 5.796.74c31.053 3.96 58.279 3.078 80.18-2.598 65.652-17.015 109.483-71.804 111.973-139.964C325.039 78.278 262.363 10.504 183.158.835c-3.734-.456-22.355-.854-26.737-.572m25.888 26.505c44.873 5.837 86.439 36.346 104.651 76.811 19.431 43.171 9.032 97.081-25.298 131.158-31.093 30.864-76.285 41.921-135.783 33.224l-4.517-.661-21.839 14.561-21.839 14.561-.21-22.863-.211-22.863-4.421-3.819c-62.573-54.045-62.598-141.813-.053-190.204 29.347-22.706 73.076-34.646 109.52-29.905M348 129.158c0 7.902-.211 12.622-.779 17.407l-.779 6.564 3.187 4.077c35.777 45.769 32.023 105.142-9.339 147.704l-3.953 4.068 1.2.735c3.851 2.357 4.898 3.091 8.147 5.705 1.969 1.584 4.68 4.116 6.026 5.626 3.107 3.486 2.795 3.556 7.893-1.781 50.109-52.464 53.884-122.474 9.681-179.546-2.61-3.37-20.26-21.401-20.949-21.401-.184 0-.335 4.879-.335 10.842m-267.7.143c-15.255 3.09-20.9 22.451-9.597 32.916 12.446 11.523 32.455 3.053 32.455-13.738 0-12.179-11.166-21.547-22.858-19.178m76.922.167c-14.719 3.202-20.135 20.948-9.774 32.024 11.239 12.014 31.52 4.992 33.055-11.443 1.198-12.823-10.68-23.323-23.281-20.581m77.415.012c-9.406 2.043-16.03 11.042-15.14 20.569 1.512 16.192 21.394 23.339 32.838 11.804 13.417-13.524.903-36.415-17.698-32.373m-82.426 192.261c-5.606.473-23.945.587-28.356.176l-3.513-.327 3.513 3.349c33.753 32.183 64.653 45.296 106.882 45.358l13.263.019.091-6.19c.076-5.25.442-8.625 1.68-15.506l.192-1.064-4.771.359c-28.827 2.172-50.841-4.154-78.34-22.512-3.41-2.277-6.252-4.112-6.316-4.079-.063.034-2.01.222-4.325.417" fill-rule="evenodd"/><circle cy="362.316" cx="305.5" stroke="#7E191B" fill="#7E191B" r="45"/></svg>