<svg xmlns="http://www.w3.org/2000/svg" width="400" height="412.632"><path d="M156.421.263C67.428 5.996.167 69.458.287 147.579c.068 44.083 16.564 82.952 46.901 110.516l4.391 3.989.21 36.515.211 36.516 4.211-2.428c2.315-1.335 18.61-10.768 36.21-20.962l32-18.535 5.796.74c31.053 3.96 58.279 3.078 80.18-2.598 65.652-17.015 109.483-71.804 111.973-139.964C325.039 78.278 262.363 10.504 183.158.835c-3.734-.456-22.355-.854-26.737-.572m25.888 26.505c44.873 5.837 86.439 36.346 104.651 76.811 19.431 43.171 9.032 97.081-25.298 131.158-31.093 30.864-76.285 41.921-135.783 33.224l-4.517-.661-21.839 14.561-21.839 14.561-.21-22.863-.211-22.863-4.421-3.819c-62.573-54.045-62.598-141.813-.053-190.204 29.347-22.706 73.076-34.646 109.52-29.905M348 129.158c0 7.902-.211 12.622-.779 17.407l-.779 6.564 3.187 4.077c39.183 50.125 30.418 116.797-20.776 158.044-4.009 3.231-14.752 10.615-18.061 12.415l-1.318.717v45.514l-21.867-14.577-21.866-14.577-6.871 1.099c-39.046 6.247-63.816.99-95.923-20.358l-6.105-4.06-4.421.341c-5.971.461-24.215.559-28.566.153l-3.513-.327 3.513 3.349c28.282 26.967 54.185 40.11 87.934 44.618 11.787 1.574 43.863.711 50.555-1.361.386-.119 15.558 8.979 36.529 21.905 19.728 12.16 36.058 22.11 36.288 22.11.273 0 .418-12.58.418-36.393v-36.392l3.684-2.657c67.303-48.529 80.083-132.414 30.021-197.052-2.61-3.37-20.26-21.401-20.949-21.401-.184 0-.335 4.879-.335 10.842m-267.7.143c-15.255 3.09-20.9 22.451-9.597 32.916 12.446 11.523 32.455 3.053 32.455-13.738 0-12.179-11.166-21.547-22.858-19.178m76.922.167c-14.719 3.202-20.135 20.948-9.774 32.024 11.239 12.014 31.52 4.992 33.055-11.443 1.198-12.823-10.68-23.323-23.281-20.581m77.415.012c-9.406 2.043-16.03 11.042-15.14 20.569 1.512 16.192 21.394 23.339 32.838 11.804 13.417-13.524.903-36.415-17.698-32.373" fill="#7E191B"/></svg>