<svg width="600" height="600" xmlns="http://www.w3.org/2000/svg" version="1.0"><path d="M164.656 13.672c-2.112.192-7.104.96-11.04 1.824-28.896 5.952-55.2 21.216-81.408 47.328C39.184 95.656 21.712 126.664 14.8 165.16c-2.4 13.248-2.4 43.68 0 59.04 8.352 53.856 35.232 110.016 83.04 173.76 30.24 40.224 75.168 88.8 105.696 114.144 6.048 4.992 28.608 23.904 50.112 42.048 21.504 18.048 39.936 33.312 40.992 33.792 2.4 1.344 9.312 1.344 11.712 0 1.056-.48 19.488-15.744 40.992-33.792a12636.198 12636.198 0 0 1 50.592-42.432c13.728-11.232 39.744-36.672 57.984-56.64 65.76-71.904 108.192-141.12 124.896-203.52 6.144-23.04 7.2-31.392 7.104-57.6 0-21.312-.192-25.152-2.208-34.08-7.488-34.848-22.848-62.016-52.896-93.504-26.304-27.552-54.72-44.544-85.44-51.072-11.328-2.4-34.848-2.4-46.08-.096-31.968 6.72-61.92 23.904-90.048 51.456L300.784 76.84 288.88 65.416c-39.936-38.4-81.024-55.488-124.224-51.744z" fill="#7E191B"/></svg>