<svg version="1.0" xmlns="http://www.w3.org/2000/svg" width="600" height="600"><path fill="#7e191b" d="M293.3 1.7C288.4 4.5 3.2 275.1 1.5 278.7.2 281.4 0 300.5 0 435.2 0 582.5.1 588.7 1.9 592c1 1.9 3 4.4 4.5 5.5 2.7 2 3.9 2 116.9 2.3l114.2.2 4.5-2.2c6-3 9.4-9.3 8.6-15.7-.7-5.5-1.9-7-14.6-17.9-15-12.8-45.8-44.5-57.5-59.2-25.5-31.7-40.5-58.5-47.7-85-1.9-7.2-2.3-10.9-2.3-24 0-14.8.2-15.9 3.1-24.2 4.2-11.8 10.7-21.7 21.5-33.2 11.1-11.7 19.7-18.3 31.4-24.1 11.7-5.9 19.7-7.8 31.5-7.9 11.2 0 21.3 2.5 33.5 8.4 9.8 4.7 25.9 16.6 34 25 7.7 8.2 10.8 10 17 10 6.2 0 9.3-1.8 17-10 8.1-8.4 24.2-20.3 34-25 12.2-5.9 22.3-8.4 33.5-8.4 11.8.1 19.8 2 31.5 7.9 11.7 5.8 20.3 12.4 31.4 24.1 16.7 17.7 23.9 33 24.9 52.6 1.5 33.1-14.2 68.8-50.2 113.8-11.9 14.8-44.5 48.2-59.2 60.7-11.7 9.9-13.9 13.2-13.2 20.3.6 5.8 3.1 9.4 8.4 12 4 2 5.3 2 118.2 1.8 112.9-.3 114.1-.3 116.8-2.3 1.5-1.1 3.5-3.6 4.5-5.5 1.8-3.3 1.9-9.5 1.9-156.8 0-134.7-.2-153.8-1.5-156.5-1.7-3.6-286.9-274.2-291.8-277C305 .8 301.9 0 300 0c-1.9 0-5 .8-6.7 1.7z"/></svg>