<svg version="1.0" xmlns="http://www.w3.org/2000/svg" width="600" height="600"><path d="M293 1.8c-1.9 1-4.2 3-5.2 4.3-1 1.3-22.5 60.4-47.8 131.4-25.3 71-46.4 130-47 131.2-.9 2.1-5.7-1.2-85.7-57.3-46.6-32.8-85.8-60-87.1-60.5C10.6 147.2 0 154.6 0 165c0 3.8 10.3 31.7 53 143.6 29.2 76.4 53.9 140 54.8 141.4 1 1.4 3.4 3.3 5.3 4.2 3.2 1.7 14.2 1.8 186.9 1.8 172.7 0 183.7-.1 186.9-1.8 1.9-.9 4.3-2.8 5.3-4.2.9-1.4 25.6-65 54.8-141.4 42.7-111.9 53-139.8 53-143.6 0-10.4-10.6-17.8-20.2-14.1-1.3.5-40.5 27.7-87.1 60.4-46.6 32.8-84.9 59.2-85.1 58.8-.3-.4-20.7-57.4-45.4-126.6-24.8-69.3-46-128.6-47.2-131.8C312.3 4.5 307.9.9 301.2.3c-3.4-.3-5.7.1-8.2 1.5zM93.4 486.4c-3.9 1.7-7.1 5.8-8.4 10.7-.7 2.5-1 19.7-.8 48.2.3 43.4.3 44.3 2.5 47.7 1.2 1.9 3.5 4.3 5.1 5.3 2.8 1.6 14.6 1.7 208.3 1.7h205.3l3.2-2.2c7-4.8 6.8-3.5 7.4-51.8.3-23.9.2-45.5-.3-48-.8-5-4.5-9.5-9.4-11.6-4.8-2.1-408.2-2-412.9 0z" fill="#7E191B"/></svg>