<svg xmlns="http://www.w3.org/2000/svg" version="1.0" width="600" height="600" viewBox="0 0 980 916"><path d="M478.5 1.6c-25.8 4.2-50.9 22-67.9 48.1C401.3 64.2 13.5 769.3 9.4 779.4 2.6 796.1.7 805.6.7 823c0 18.4 1.7 26.4 8.8 40.5 12.5 25 34.8 41 68 48.8l9 2.2 397.5.3c295.2.2 399.9 0 407-.8 15.1-1.9 27.4-5.4 39.5-11.5 18.7-9.3 31.7-22 40.1-39 7.1-14.4 8.7-22.2 8.7-40.5 0-17.4-1.9-26.9-8.7-43.6-1.9-4.8-49.8-92.6-106.2-195.3-56.5-102.6-145.1-263.6-196.9-357.6-51.8-94.1-96.3-174.3-99-178.4-5.9-8.9-19.5-23.4-27.8-29.7-7.3-5.5-21.9-12.7-30.2-14.9-6-1.6-26.3-2.8-32-1.9zM496.8 78c2.2 1.6 5.9 5.3 8 8.2 2.2 2.9 83.7 150.2 181.2 327.3C783.5 590.6 871.8 751 882.2 769.9c19.1 34.6 23.8 45.3 23.8 53.4 0 5.2-2.9 10.2-7.7 12.9-8.6 5.1 12.4 4.8-411.5 4.6-377.8-.3-394.5-.4-399.6-2.1-3-1-7-3.3-8.9-5.1-3.1-2.8-3.7-4-4.1-8.7-.8-9.9 2.3-16.3 45.6-95.1 22.5-40.9 110.8-201.2 196.2-356.3C401.3 218.4 473 89.1 475.1 86.2 480 79.8 486.3 75 490 75c1.5 0 4.5 1.3 6.8 3z"/><path d="M473 287.7c-2.4.2-4.9.8-5.5 1.3-.5.4-2.7 1.1-4.8 1.5-4.2.8-12.6 6.1-17.1 10.9-3.3 3.5-8.6 12.8-8.6 15.1 0 .8-.4 1.5-1 1.5s-1 7.5-1 20.5c0 11.3.4 20.5.9 20.5.4 0 1.1 8.7 1.5 19.2.4 10.6 1.1 20.6 1.6 22.3.5 1.6 1.7 19.2 2.5 39 .9 19.8 2 36.9 2.5 38 .4 1.1 1.6 16.4 2.5 34 1.7 32.3 2.2 38.8 4.9 59.3 1.9 14.7 2.4 16.8 5.2 22.4 2.6 5.1 7.7 10.4 16.3 17.1l5.4 4.2h9.3c5-.1 9.8-.5 10.5-1.1.8-.6 3-1.6 4.9-2.3 7.6-2.6 16.9-11.2 20.3-19 .6-1.4 1.4-2.8 1.8-3.1 2.8-2.4 4.6-23.8 8-98.5 1.2-24.8 2.5-45.9 2.9-47 1-2.3 4.1-82.6 4.1-105.1.1-17.1-.9-21.7-5.7-28.4-6.9-9.5-15.5-16.1-24-18.5-3.3-.9-6.7-2-7.6-2.6-2-1-22.9-1.9-29.8-1.2zm8.1 360.9c-3.6.7-6.7 1.7-7 2.2-.3.4-2.5 1.6-4.8 2.6s-5 2.7-5.9 3.7c-1 1.1-2.2 1.9-2.8 1.9-1.1 0-7.6 6.2-7.6 7.3 0 .3-1.6 2.8-3.5 5.7-1.9 2.9-3.5 5.9-3.5 6.9 0 .9-.7 2.9-1.6 4.6-2 3.7-2.5 19.8-.6 21.7.7.7 1.2 2 1.2 2.9 0 3.3 4.9 12.5 9.7 18.1 6.2 7.4 14.1 13.2 20.1 14.8 2.6.7 5.3 1.8 6 2.3 1.8 1.4 24.2 1.3 25 0 .4-.6 2.6-1.4 5-1.8 2.3-.4 6.4-2.2 9-4.1 2.6-1.9 5.3-3.7 6.1-4.1 4.1-1.9 12.5-13.1 13.8-18.3.3-1.4 1-3.1 1.6-3.8 1.5-2 2.5-14.9 1.6-22.2-.4-3.6-2-8.9-3.4-11.7-1.4-2.9-2.5-5.5-2.5-5.8 0-.8-1.6-2.8-7.7-9.4-11.4-12.4-29.7-17.6-48.2-13.5z"/></svg>